<mxfile host="app.diagrams.net" modified="2025-07-13T15:30:32.022Z" agent="Mozilla/5.0 (Windows NT 10.0; Win64; x64) AppleWebKit/537.36 (KHTML, like Gecko) Chrome/130.0.0.0 Safari/537.36" version="24.4.8" etag="RVVvbqJkq-KO1kHah8pT" type="device">
  <diagram id="C5RBs43oDa-KdzZeNtuy" name="Page-1">
    <mxGraphModel dx="1994" dy="580" grid="1" gridSize="10" guides="1" tooltips="1" connect="1" arrows="1" fold="1" page="1" pageScale="1" pageWidth="827" pageHeight="1169" math="0" shadow="0">
      <root>
        <mxCell id="WIyWlLk6GJQsqaUBKTNV-0" />
        <mxCell id="WIyWlLk6GJQsqaUBKTNV-1" parent="WIyWlLk6GJQsqaUBKTNV-0" />
        <mxCell id="M7CGMbNuYNeq0SnUNNgH-6" value="ทบทวนสัญลักษณ์" style="swimlane;fontFamily=Sarabun;fontSource=https%3A%2F%2Ffonts.googleapis.com%2Fcss%3Ffamily%3DSarabun;" parent="WIyWlLk6GJQsqaUBKTNV-1" vertex="1">
          <mxGeometry x="-720" y="20" width="640" height="290" as="geometry" />
        </mxCell>
        <mxCell id="M7CGMbNuYNeq0SnUNNgH-2" value="&lt;font data-font-src=&quot;https://fonts.googleapis.com/css?family=Sarabun&quot; face=&quot;Sarabun&quot;&gt;เริ่มต้น&lt;/font&gt;" style="ellipse;whiteSpace=wrap;html=1;" parent="M7CGMbNuYNeq0SnUNNgH-6" vertex="1">
          <mxGeometry x="20" y="40" width="130" height="30" as="geometry" />
        </mxCell>
        <mxCell id="M7CGMbNuYNeq0SnUNNgH-5" value="" style="endArrow=classic;html=1;rounded=0;" parent="M7CGMbNuYNeq0SnUNNgH-6" edge="1">
          <mxGeometry width="50" height="50" relative="1" as="geometry">
            <mxPoint x="84.5" y="70" as="sourcePoint" />
            <mxPoint x="84.5" y="120" as="targetPoint" />
          </mxGeometry>
        </mxCell>
        <mxCell id="M7CGMbNuYNeq0SnUNNgH-3" value="&lt;font face=&quot;Sarabun&quot;&gt;สิ้นสุด&lt;/font&gt;" style="ellipse;whiteSpace=wrap;html=1;" parent="M7CGMbNuYNeq0SnUNNgH-6" vertex="1">
          <mxGeometry x="150" y="90" width="130" height="30" as="geometry" />
        </mxCell>
        <mxCell id="M7CGMbNuYNeq0SnUNNgH-4" value="" style="endArrow=classic;html=1;rounded=0;" parent="M7CGMbNuYNeq0SnUNNgH-6" edge="1">
          <mxGeometry width="50" height="50" relative="1" as="geometry">
            <mxPoint x="214.5" y="40" as="sourcePoint" />
            <mxPoint x="214.5" y="90" as="targetPoint" />
          </mxGeometry>
        </mxCell>
        <mxCell id="mvioNwK95yMqdUQ73LqQ-0" value="กระบวนการ" style="rounded=0;whiteSpace=wrap;html=1;fontFamily=Sarabun;fontSource=https%3A%2F%2Ffonts.googleapis.com%2Fcss%3Ffamily%3DSarabun;" parent="M7CGMbNuYNeq0SnUNNgH-6" vertex="1">
          <mxGeometry x="320" y="70" width="120" height="30" as="geometry" />
        </mxCell>
        <mxCell id="mvioNwK95yMqdUQ73LqQ-1" value="" style="endArrow=classic;html=1;rounded=0;" parent="M7CGMbNuYNeq0SnUNNgH-6" edge="1">
          <mxGeometry width="50" height="50" relative="1" as="geometry">
            <mxPoint x="379" y="40" as="sourcePoint" />
            <mxPoint x="379.5" y="70" as="targetPoint" />
          </mxGeometry>
        </mxCell>
        <mxCell id="mvioNwK95yMqdUQ73LqQ-2" value="" style="endArrow=classic;html=1;rounded=0;" parent="M7CGMbNuYNeq0SnUNNgH-6" edge="1">
          <mxGeometry width="50" height="50" relative="1" as="geometry">
            <mxPoint x="379.75" y="100" as="sourcePoint" />
            <mxPoint x="380.25" y="130" as="targetPoint" />
          </mxGeometry>
        </mxCell>
        <mxCell id="mvioNwK95yMqdUQ73LqQ-3" value="ประโยคเงื่อนไข" style="rhombus;whiteSpace=wrap;html=1;fontFamily=Sarabun;fontSource=https%3A%2F%2Ffonts.googleapis.com%2Fcss%3Ffamily%3DSarabun;" parent="M7CGMbNuYNeq0SnUNNgH-6" vertex="1">
          <mxGeometry x="490" y="60" width="100" height="60" as="geometry" />
        </mxCell>
        <mxCell id="mvioNwK95yMqdUQ73LqQ-4" value="" style="endArrow=classic;html=1;rounded=0;" parent="M7CGMbNuYNeq0SnUNNgH-6" edge="1">
          <mxGeometry width="50" height="50" relative="1" as="geometry">
            <mxPoint x="539.71" y="30" as="sourcePoint" />
            <mxPoint x="540.21" y="60" as="targetPoint" />
          </mxGeometry>
        </mxCell>
        <mxCell id="mvioNwK95yMqdUQ73LqQ-5" value="" style="endArrow=classic;html=1;rounded=0;" parent="M7CGMbNuYNeq0SnUNNgH-6" edge="1">
          <mxGeometry width="50" height="50" relative="1" as="geometry">
            <mxPoint x="539.71" y="120" as="sourcePoint" />
            <mxPoint x="540" y="175" as="targetPoint" />
          </mxGeometry>
        </mxCell>
        <mxCell id="mvioNwK95yMqdUQ73LqQ-7" value="จริง" style="edgeLabel;html=1;align=center;verticalAlign=middle;resizable=0;points=[];fontFamily=Sarabun;fontSource=https%3A%2F%2Ffonts.googleapis.com%2Fcss%3Ffamily%3DSarabun;" parent="mvioNwK95yMqdUQ73LqQ-5" vertex="1" connectable="0">
          <mxGeometry x="-0.4142" y="-1" relative="1" as="geometry">
            <mxPoint as="offset" />
          </mxGeometry>
        </mxCell>
        <mxCell id="mvioNwK95yMqdUQ73LqQ-6" value="" style="endArrow=classic;html=1;rounded=0;exitX=1;exitY=0.5;exitDx=0;exitDy=0;" parent="M7CGMbNuYNeq0SnUNNgH-6" source="mvioNwK95yMqdUQ73LqQ-3" edge="1">
          <mxGeometry width="50" height="50" relative="1" as="geometry">
            <mxPoint x="620" y="95" as="sourcePoint" />
            <mxPoint x="610" y="175" as="targetPoint" />
            <Array as="points">
              <mxPoint x="610" y="90" />
            </Array>
          </mxGeometry>
        </mxCell>
        <mxCell id="mvioNwK95yMqdUQ73LqQ-8" value="&lt;font data-font-src=&quot;https://fonts.googleapis.com/css?family=Sarabun&quot; face=&quot;Sarabun&quot;&gt;เท็จ&lt;/font&gt;" style="edgeLabel;html=1;align=center;verticalAlign=middle;resizable=0;points=[];" parent="mvioNwK95yMqdUQ73LqQ-6" vertex="1" connectable="0">
          <mxGeometry x="-0.0019" y="-2" relative="1" as="geometry">
            <mxPoint as="offset" />
          </mxGeometry>
        </mxCell>
        <mxCell id="mvioNwK95yMqdUQ73LqQ-9" value="&lt;font data-font-src=&quot;https://fonts.googleapis.com/css?family=Sarabun&quot; face=&quot;Sarabun&quot;&gt;ฟังก์ชัน/โมดูล&lt;/font&gt;" style="shape=process;whiteSpace=wrap;html=1;backgroundOutline=1;" parent="M7CGMbNuYNeq0SnUNNgH-6" vertex="1">
          <mxGeometry x="25" y="180" width="120" height="30" as="geometry" />
        </mxCell>
        <mxCell id="mvioNwK95yMqdUQ73LqQ-11" value="" style="endArrow=classic;html=1;rounded=0;" parent="M7CGMbNuYNeq0SnUNNgH-6" edge="1">
          <mxGeometry width="50" height="50" relative="1" as="geometry">
            <mxPoint x="84.70999999999998" y="150" as="sourcePoint" />
            <mxPoint x="85.20999999999998" y="180" as="targetPoint" />
          </mxGeometry>
        </mxCell>
        <mxCell id="mvioNwK95yMqdUQ73LqQ-12" value="" style="endArrow=classic;html=1;rounded=0;" parent="M7CGMbNuYNeq0SnUNNgH-6" edge="1">
          <mxGeometry width="50" height="50" relative="1" as="geometry">
            <mxPoint x="84.70999999999998" y="210" as="sourcePoint" />
            <mxPoint x="85.20999999999998" y="240" as="targetPoint" />
          </mxGeometry>
        </mxCell>
        <mxCell id="mvioNwK95yMqdUQ73LqQ-13" value="" style="strokeWidth=2;html=1;shape=mxgraph.flowchart.start_2;whiteSpace=wrap;" parent="M7CGMbNuYNeq0SnUNNgH-6" vertex="1">
          <mxGeometry x="205" y="185" width="20" height="20" as="geometry" />
        </mxCell>
        <mxCell id="mvioNwK95yMqdUQ73LqQ-16" value="" style="endArrow=classic;html=1;rounded=0;" parent="M7CGMbNuYNeq0SnUNNgH-6" edge="1">
          <mxGeometry width="50" height="50" relative="1" as="geometry">
            <mxPoint x="214.70999999999998" y="155" as="sourcePoint" />
            <mxPoint x="215.20999999999998" y="185" as="targetPoint" />
          </mxGeometry>
        </mxCell>
        <mxCell id="mvioNwK95yMqdUQ73LqQ-17" value="" style="endArrow=classic;html=1;rounded=0;entryX=0;entryY=0.5;entryDx=0;entryDy=0;entryPerimeter=0;" parent="M7CGMbNuYNeq0SnUNNgH-6" target="mvioNwK95yMqdUQ73LqQ-13" edge="1">
          <mxGeometry width="50" height="50" relative="1" as="geometry">
            <mxPoint x="189.99999999999997" y="155" as="sourcePoint" />
            <mxPoint x="190.49999999999997" y="185" as="targetPoint" />
            <Array as="points">
              <mxPoint x="190" y="180" />
            </Array>
          </mxGeometry>
        </mxCell>
        <mxCell id="mvioNwK95yMqdUQ73LqQ-18" value="" style="endArrow=classic;html=1;rounded=0;entryX=1;entryY=0.5;entryDx=0;entryDy=0;entryPerimeter=0;" parent="M7CGMbNuYNeq0SnUNNgH-6" target="mvioNwK95yMqdUQ73LqQ-13" edge="1">
          <mxGeometry width="50" height="50" relative="1" as="geometry">
            <mxPoint x="239.99999999999997" y="155" as="sourcePoint" />
            <mxPoint x="240.49999999999997" y="185" as="targetPoint" />
            <Array as="points">
              <mxPoint x="240" y="180" />
            </Array>
          </mxGeometry>
        </mxCell>
        <mxCell id="mvioNwK95yMqdUQ73LqQ-19" value="" style="endArrow=classic;html=1;rounded=0;" parent="M7CGMbNuYNeq0SnUNNgH-6" edge="1">
          <mxGeometry width="50" height="50" relative="1" as="geometry">
            <mxPoint x="214.70999999999998" y="205" as="sourcePoint" />
            <mxPoint x="215.20999999999998" y="235" as="targetPoint" />
          </mxGeometry>
        </mxCell>
        <mxCell id="mvioNwK95yMqdUQ73LqQ-20" value="&lt;font data-font-src=&quot;https://fonts.googleapis.com/css?family=Sarabun&quot; face=&quot;Sarabun&quot;&gt;ตัวเชื่อม&lt;/font&gt;" style="text;html=1;align=center;verticalAlign=middle;resizable=0;points=[];autosize=1;strokeColor=none;fillColor=none;" parent="M7CGMbNuYNeq0SnUNNgH-6" vertex="1">
          <mxGeometry x="220" y="190" width="60" height="30" as="geometry" />
        </mxCell>
        <mxCell id="mvioNwK95yMqdUQ73LqQ-25" value="" style="endArrow=classic;html=1;rounded=0;" parent="M7CGMbNuYNeq0SnUNNgH-6" edge="1">
          <mxGeometry width="50" height="50" relative="1" as="geometry">
            <mxPoint x="353.71" y="165" as="sourcePoint" />
            <mxPoint x="354.21" y="195" as="targetPoint" />
          </mxGeometry>
        </mxCell>
        <mxCell id="mvioNwK95yMqdUQ73LqQ-21" value="" style="verticalLabelPosition=bottom;verticalAlign=top;html=1;shape=offPageConnector;rounded=0;size=0.5;" parent="M7CGMbNuYNeq0SnUNNgH-6" vertex="1">
          <mxGeometry x="339" y="195" width="30" height="30" as="geometry" />
        </mxCell>
        <mxCell id="mvioNwK95yMqdUQ73LqQ-26" value="" style="endArrow=classic;html=1;rounded=0;" parent="M7CGMbNuYNeq0SnUNNgH-6" edge="1">
          <mxGeometry width="50" height="50" relative="1" as="geometry">
            <mxPoint x="405.71" y="195" as="sourcePoint" />
            <mxPoint x="406.21" y="225" as="targetPoint" />
          </mxGeometry>
        </mxCell>
        <mxCell id="mvioNwK95yMqdUQ73LqQ-27" value="" style="verticalLabelPosition=bottom;verticalAlign=top;html=1;shape=offPageConnector;rounded=0;size=0.5;" parent="M7CGMbNuYNeq0SnUNNgH-6" vertex="1">
          <mxGeometry x="391" y="165" width="30" height="30" as="geometry" />
        </mxCell>
        <mxCell id="mvioNwK95yMqdUQ73LqQ-28" value="หน้าต่อไป" style="text;html=1;align=center;verticalAlign=middle;resizable=0;points=[];autosize=1;strokeColor=none;fillColor=none;fontFamily=Sarabun;fontSource=https%3A%2F%2Ffonts.googleapis.com%2Fcss%3Ffamily%3DSarabun;" parent="M7CGMbNuYNeq0SnUNNgH-6" vertex="1">
          <mxGeometry x="345" y="220" width="70" height="30" as="geometry" />
        </mxCell>
        <mxCell id="mvioNwK95yMqdUQ73LqQ-29" value="ก" style="text;html=1;align=center;verticalAlign=middle;resizable=0;points=[];autosize=1;strokeColor=none;fillColor=none;fontFamily=Sarabun;fontSource=https%3A%2F%2Ffonts.googleapis.com%2Fcss%3Ffamily%3DSarabun;" parent="M7CGMbNuYNeq0SnUNNgH-6" vertex="1">
          <mxGeometry x="339" y="190" width="30" height="30" as="geometry" />
        </mxCell>
        <mxCell id="mvioNwK95yMqdUQ73LqQ-30" value="ก" style="text;html=1;align=center;verticalAlign=middle;resizable=0;points=[];autosize=1;strokeColor=none;fillColor=none;fontFamily=Sarabun;fontSource=https%3A%2F%2Ffonts.googleapis.com%2Fcss%3Ffamily%3DSarabun;" parent="M7CGMbNuYNeq0SnUNNgH-6" vertex="1">
          <mxGeometry x="391" y="160" width="30" height="30" as="geometry" />
        </mxCell>
        <mxCell id="mvioNwK95yMqdUQ73LqQ-32" value="แสดงผล/รับค่า" style="shape=parallelogram;perimeter=parallelogramPerimeter;whiteSpace=wrap;html=1;fixedSize=1;fontFamily=Sarabun;fontSource=https%3A%2F%2Ffonts.googleapis.com%2Fcss%3Ffamily%3DSarabun;" parent="M7CGMbNuYNeq0SnUNNgH-6" vertex="1">
          <mxGeometry x="450" y="210" width="120" height="30" as="geometry" />
        </mxCell>
        <mxCell id="mvioNwK95yMqdUQ73LqQ-33" value="" style="endArrow=classic;html=1;rounded=0;" parent="M7CGMbNuYNeq0SnUNNgH-6" edge="1">
          <mxGeometry width="50" height="50" relative="1" as="geometry">
            <mxPoint x="509.71" y="180" as="sourcePoint" />
            <mxPoint x="510.21" y="210" as="targetPoint" />
          </mxGeometry>
        </mxCell>
        <mxCell id="mvioNwK95yMqdUQ73LqQ-34" value="" style="endArrow=classic;html=1;rounded=0;" parent="M7CGMbNuYNeq0SnUNNgH-6" edge="1">
          <mxGeometry width="50" height="50" relative="1" as="geometry">
            <mxPoint x="509.71" y="240" as="sourcePoint" />
            <mxPoint x="510.21" y="270" as="targetPoint" />
          </mxGeometry>
        </mxCell>
        <mxCell id="mvioNwK95yMqdUQ73LqQ-36" value="แก้ไขโจทย์ปัญหา" style="swimlane;fontFamily=Sarabun;fontSource=https%3A%2F%2Ffonts.googleapis.com%2Fcss%3Ffamily%3DSarabun;" parent="WIyWlLk6GJQsqaUBKTNV-1" vertex="1">
          <mxGeometry x="70" y="14" width="726.5" height="1140" as="geometry" />
        </mxCell>
        <mxCell id="xchZKOA8fYitA80GFGcP-71" style="edgeStyle=orthogonalEdgeStyle;rounded=0;orthogonalLoop=1;jettySize=auto;html=1;entryX=0.5;entryY=0;entryDx=0;entryDy=0;" edge="1" parent="mvioNwK95yMqdUQ73LqQ-36" source="xchZKOA8fYitA80GFGcP-1" target="xchZKOA8fYitA80GFGcP-69">
          <mxGeometry relative="1" as="geometry" />
        </mxCell>
        <mxCell id="xchZKOA8fYitA80GFGcP-1" value="&lt;font style=&quot;font-size: 15px;&quot;&gt;เริ่มต้น&lt;/font&gt;" style="strokeWidth=1;html=1;shape=mxgraph.flowchart.terminator;whiteSpace=wrap;" vertex="1" parent="mvioNwK95yMqdUQ73LqQ-36">
          <mxGeometry x="255" y="30" width="130" height="60" as="geometry" />
        </mxCell>
        <mxCell id="xchZKOA8fYitA80GFGcP-14" value="" style="edgeStyle=orthogonalEdgeStyle;rounded=0;orthogonalLoop=1;jettySize=auto;html=1;" edge="1" parent="mvioNwK95yMqdUQ73LqQ-36" source="xchZKOA8fYitA80GFGcP-9" target="xchZKOA8fYitA80GFGcP-13">
          <mxGeometry relative="1" as="geometry" />
        </mxCell>
        <mxCell id="xchZKOA8fYitA80GFGcP-19" value="" style="edgeStyle=orthogonalEdgeStyle;rounded=0;orthogonalLoop=1;jettySize=auto;html=1;" edge="1" parent="mvioNwK95yMqdUQ73LqQ-36" source="xchZKOA8fYitA80GFGcP-9" target="xchZKOA8fYitA80GFGcP-18">
          <mxGeometry relative="1" as="geometry" />
        </mxCell>
        <mxCell id="xchZKOA8fYitA80GFGcP-9" value="สินค้าประเภทนํ้า" style="rhombus;whiteSpace=wrap;html=1;" vertex="1" parent="mvioNwK95yMqdUQ73LqQ-36">
          <mxGeometry x="260" y="320" width="120" height="110" as="geometry" />
        </mxCell>
        <mxCell id="xchZKOA8fYitA80GFGcP-26" value="" style="edgeStyle=orthogonalEdgeStyle;rounded=0;orthogonalLoop=1;jettySize=auto;html=1;" edge="1" parent="mvioNwK95yMqdUQ73LqQ-36" source="xchZKOA8fYitA80GFGcP-13" target="xchZKOA8fYitA80GFGcP-25">
          <mxGeometry relative="1" as="geometry" />
        </mxCell>
        <mxCell id="xchZKOA8fYitA80GFGcP-13" value="สินค้าประเภทขนม" style="rhombus;whiteSpace=wrap;html=1;" vertex="1" parent="mvioNwK95yMqdUQ73LqQ-36">
          <mxGeometry x="460" y="320" width="120" height="110" as="geometry" />
        </mxCell>
        <mxCell id="xchZKOA8fYitA80GFGcP-15" value="no" style="text;html=1;align=center;verticalAlign=middle;whiteSpace=wrap;rounded=0;" vertex="1" parent="mvioNwK95yMqdUQ73LqQ-36">
          <mxGeometry x="385" y="350" width="60" height="30" as="geometry" />
        </mxCell>
        <mxCell id="xchZKOA8fYitA80GFGcP-22" value="" style="edgeStyle=orthogonalEdgeStyle;rounded=0;orthogonalLoop=1;jettySize=auto;html=1;" edge="1" parent="mvioNwK95yMqdUQ73LqQ-36" source="xchZKOA8fYitA80GFGcP-18" target="xchZKOA8fYitA80GFGcP-21">
          <mxGeometry relative="1" as="geometry" />
        </mxCell>
        <mxCell id="xchZKOA8fYitA80GFGcP-18" value="แสดงรายการสินค้าประเภทนํ้าและราคา" style="whiteSpace=wrap;html=1;" vertex="1" parent="mvioNwK95yMqdUQ73LqQ-36">
          <mxGeometry x="260" y="470" width="120" height="60" as="geometry" />
        </mxCell>
        <mxCell id="xchZKOA8fYitA80GFGcP-20" value="yes" style="text;html=1;align=center;verticalAlign=middle;whiteSpace=wrap;rounded=0;" vertex="1" parent="mvioNwK95yMqdUQ73LqQ-36">
          <mxGeometry x="325" y="425" width="60" height="30" as="geometry" />
        </mxCell>
        <mxCell id="xchZKOA8fYitA80GFGcP-39" style="edgeStyle=orthogonalEdgeStyle;rounded=0;orthogonalLoop=1;jettySize=auto;html=1;entryX=0;entryY=0.5;entryDx=0;entryDy=0;" edge="1" parent="mvioNwK95yMqdUQ73LqQ-36" source="xchZKOA8fYitA80GFGcP-21" target="xchZKOA8fYitA80GFGcP-35">
          <mxGeometry relative="1" as="geometry">
            <Array as="points">
              <mxPoint x="207" y="620" />
              <mxPoint x="207" y="260" />
            </Array>
          </mxGeometry>
        </mxCell>
        <mxCell id="xchZKOA8fYitA80GFGcP-45" style="edgeStyle=orthogonalEdgeStyle;rounded=0;orthogonalLoop=1;jettySize=auto;html=1;entryX=0;entryY=0.5;entryDx=0;entryDy=0;" edge="1" parent="mvioNwK95yMqdUQ73LqQ-36" source="xchZKOA8fYitA80GFGcP-21" target="xchZKOA8fYitA80GFGcP-42">
          <mxGeometry relative="1" as="geometry">
            <Array as="points">
              <mxPoint x="320" y="710" />
            </Array>
          </mxGeometry>
        </mxCell>
        <mxCell id="xchZKOA8fYitA80GFGcP-21" value="เลือกสินค้าประเภทนํ้าที่ต้องการหรือไม่" style="rhombus;whiteSpace=wrap;html=1;" vertex="1" parent="mvioNwK95yMqdUQ73LqQ-36">
          <mxGeometry x="262.5" y="560" width="115" height="120" as="geometry" />
        </mxCell>
        <mxCell id="xchZKOA8fYitA80GFGcP-24" value="no" style="text;html=1;align=center;verticalAlign=middle;whiteSpace=wrap;rounded=0;" vertex="1" parent="mvioNwK95yMqdUQ73LqQ-36">
          <mxGeometry x="205" y="580" width="60" height="30" as="geometry" />
        </mxCell>
        <mxCell id="xchZKOA8fYitA80GFGcP-28" value="" style="edgeStyle=orthogonalEdgeStyle;rounded=0;orthogonalLoop=1;jettySize=auto;html=1;" edge="1" parent="mvioNwK95yMqdUQ73LqQ-36" source="xchZKOA8fYitA80GFGcP-25" target="xchZKOA8fYitA80GFGcP-27">
          <mxGeometry relative="1" as="geometry" />
        </mxCell>
        <mxCell id="xchZKOA8fYitA80GFGcP-25" value="แสดงรายการสินค้าประเภทขนมและราคา" style="whiteSpace=wrap;html=1;" vertex="1" parent="mvioNwK95yMqdUQ73LqQ-36">
          <mxGeometry x="460" y="470" width="120" height="60" as="geometry" />
        </mxCell>
        <mxCell id="xchZKOA8fYitA80GFGcP-43" style="edgeStyle=orthogonalEdgeStyle;rounded=0;orthogonalLoop=1;jettySize=auto;html=1;entryX=1;entryY=0.5;entryDx=0;entryDy=0;" edge="1" parent="mvioNwK95yMqdUQ73LqQ-36" source="xchZKOA8fYitA80GFGcP-27" target="xchZKOA8fYitA80GFGcP-42">
          <mxGeometry relative="1" as="geometry">
            <Array as="points">
              <mxPoint x="520" y="710" />
            </Array>
          </mxGeometry>
        </mxCell>
        <mxCell id="xchZKOA8fYitA80GFGcP-125" style="edgeStyle=orthogonalEdgeStyle;rounded=0;orthogonalLoop=1;jettySize=auto;html=1;entryX=0;entryY=0.5;entryDx=0;entryDy=0;" edge="1" parent="mvioNwK95yMqdUQ73LqQ-36" source="xchZKOA8fYitA80GFGcP-27" target="xchZKOA8fYitA80GFGcP-122">
          <mxGeometry relative="1" as="geometry" />
        </mxCell>
        <mxCell id="xchZKOA8fYitA80GFGcP-27" value="เลือกสินค้าขนมที่ต้องการ" style="rhombus;whiteSpace=wrap;html=1;" vertex="1" parent="mvioNwK95yMqdUQ73LqQ-36">
          <mxGeometry x="465" y="560" width="110" height="100" as="geometry" />
        </mxCell>
        <mxCell id="xchZKOA8fYitA80GFGcP-29" value="yes" style="text;html=1;align=center;verticalAlign=middle;whiteSpace=wrap;rounded=0;" vertex="1" parent="mvioNwK95yMqdUQ73LqQ-36">
          <mxGeometry x="520" y="430" width="60" height="30" as="geometry" />
        </mxCell>
        <mxCell id="xchZKOA8fYitA80GFGcP-38" style="edgeStyle=orthogonalEdgeStyle;rounded=0;orthogonalLoop=1;jettySize=auto;html=1;entryX=0.5;entryY=0;entryDx=0;entryDy=0;" edge="1" parent="mvioNwK95yMqdUQ73LqQ-36" source="xchZKOA8fYitA80GFGcP-35" target="xchZKOA8fYitA80GFGcP-9">
          <mxGeometry relative="1" as="geometry" />
        </mxCell>
        <mxCell id="xchZKOA8fYitA80GFGcP-35" value="เลือกประเภทสินค้า" style="rounded=0;whiteSpace=wrap;html=1;" vertex="1" parent="mvioNwK95yMqdUQ73LqQ-36">
          <mxGeometry x="260" y="230" width="120" height="60" as="geometry" />
        </mxCell>
        <mxCell id="xchZKOA8fYitA80GFGcP-41" value="no" style="text;html=1;align=center;verticalAlign=middle;whiteSpace=wrap;rounded=0;" vertex="1" parent="mvioNwK95yMqdUQ73LqQ-36">
          <mxGeometry x="575" y="580" width="60" height="30" as="geometry" />
        </mxCell>
        <mxCell id="xchZKOA8fYitA80GFGcP-49" value="" style="edgeStyle=orthogonalEdgeStyle;rounded=0;orthogonalLoop=1;jettySize=auto;html=1;" edge="1" parent="mvioNwK95yMqdUQ73LqQ-36" source="xchZKOA8fYitA80GFGcP-42" target="xchZKOA8fYitA80GFGcP-48">
          <mxGeometry relative="1" as="geometry" />
        </mxCell>
        <mxCell id="xchZKOA8fYitA80GFGcP-42" value="" style="ellipse;whiteSpace=wrap;html=1;aspect=fixed;" vertex="1" parent="mvioNwK95yMqdUQ73LqQ-36">
          <mxGeometry x="405" y="690" width="40" height="40" as="geometry" />
        </mxCell>
        <mxCell id="xchZKOA8fYitA80GFGcP-58" style="edgeStyle=orthogonalEdgeStyle;rounded=0;orthogonalLoop=1;jettySize=auto;html=1;entryX=0;entryY=0.5;entryDx=0;entryDy=0;" edge="1" parent="mvioNwK95yMqdUQ73LqQ-36" source="xchZKOA8fYitA80GFGcP-48" target="xchZKOA8fYitA80GFGcP-69">
          <mxGeometry relative="1" as="geometry">
            <mxPoint x="230" y="160" as="targetPoint" />
            <Array as="points">
              <mxPoint x="67" y="825" />
              <mxPoint x="67" y="160" />
            </Array>
          </mxGeometry>
        </mxCell>
        <mxCell id="xchZKOA8fYitA80GFGcP-118" style="edgeStyle=orthogonalEdgeStyle;rounded=0;orthogonalLoop=1;jettySize=auto;html=1;entryX=0.5;entryY=0;entryDx=0;entryDy=0;" edge="1" parent="mvioNwK95yMqdUQ73LqQ-36" source="xchZKOA8fYitA80GFGcP-48" target="xchZKOA8fYitA80GFGcP-117">
          <mxGeometry relative="1" as="geometry" />
        </mxCell>
        <mxCell id="xchZKOA8fYitA80GFGcP-48" value="เลือกสินค้าต่อหรือไม่" style="rhombus;whiteSpace=wrap;html=1;" vertex="1" parent="mvioNwK95yMqdUQ73LqQ-36">
          <mxGeometry x="362.5" y="770" width="125" height="110" as="geometry" />
        </mxCell>
        <mxCell id="xchZKOA8fYitA80GFGcP-50" value="yes" style="text;html=1;align=center;verticalAlign=middle;whiteSpace=wrap;rounded=0;" vertex="1" parent="mvioNwK95yMqdUQ73LqQ-36">
          <mxGeometry x="333.25" y="710" width="60" height="30" as="geometry" />
        </mxCell>
        <mxCell id="xchZKOA8fYitA80GFGcP-51" value="yes" style="text;html=1;align=center;verticalAlign=middle;whiteSpace=wrap;rounded=0;" vertex="1" parent="mvioNwK95yMqdUQ73LqQ-36">
          <mxGeometry x="460" y="710" width="60" height="30" as="geometry" />
        </mxCell>
        <mxCell id="xchZKOA8fYitA80GFGcP-59" value="yes" style="text;html=1;align=center;verticalAlign=middle;whiteSpace=wrap;rounded=0;" vertex="1" parent="mvioNwK95yMqdUQ73LqQ-36">
          <mxGeometry x="302.5" y="826" width="60" height="30" as="geometry" />
        </mxCell>
        <mxCell id="xchZKOA8fYitA80GFGcP-60" value="no" style="text;html=1;align=center;verticalAlign=middle;whiteSpace=wrap;rounded=0;" vertex="1" parent="mvioNwK95yMqdUQ73LqQ-36">
          <mxGeometry x="370" y="886" width="60" height="30" as="geometry" />
        </mxCell>
        <mxCell id="xchZKOA8fYitA80GFGcP-70" value="" style="verticalLabelPosition=bottom;verticalAlign=top;html=1;shape=offPageConnector;rounded=0;size=0.5;" vertex="1" parent="mvioNwK95yMqdUQ73LqQ-36">
          <mxGeometry x="405" y="1086" width="40" height="40" as="geometry" />
        </mxCell>
        <mxCell id="xchZKOA8fYitA80GFGcP-72" style="edgeStyle=orthogonalEdgeStyle;rounded=0;orthogonalLoop=1;jettySize=auto;html=1;" edge="1" parent="mvioNwK95yMqdUQ73LqQ-36" source="xchZKOA8fYitA80GFGcP-69" target="xchZKOA8fYitA80GFGcP-35">
          <mxGeometry relative="1" as="geometry" />
        </mxCell>
        <mxCell id="xchZKOA8fYitA80GFGcP-69" value="แสดงรายการสินค้าและราคาทั้งหมด" style="shape=parallelogram;perimeter=parallelogramPerimeter;whiteSpace=wrap;html=1;fixedSize=1;" vertex="1" parent="mvioNwK95yMqdUQ73LqQ-36">
          <mxGeometry x="210" y="130" width="220" height="60" as="geometry" />
        </mxCell>
        <mxCell id="xchZKOA8fYitA80GFGcP-73" value="ก" style="text;html=1;align=center;verticalAlign=middle;whiteSpace=wrap;rounded=0;" vertex="1" parent="mvioNwK95yMqdUQ73LqQ-36">
          <mxGeometry x="395" y="1086" width="60" height="30" as="geometry" />
        </mxCell>
        <mxCell id="xchZKOA8fYitA80GFGcP-119" style="edgeStyle=orthogonalEdgeStyle;rounded=0;orthogonalLoop=1;jettySize=auto;html=1;" edge="1" parent="mvioNwK95yMqdUQ73LqQ-36" source="xchZKOA8fYitA80GFGcP-117" target="xchZKOA8fYitA80GFGcP-73">
          <mxGeometry relative="1" as="geometry" />
        </mxCell>
        <mxCell id="xchZKOA8fYitA80GFGcP-123" style="edgeStyle=orthogonalEdgeStyle;rounded=0;orthogonalLoop=1;jettySize=auto;html=1;entryX=0.5;entryY=1;entryDx=0;entryDy=0;" edge="1" parent="mvioNwK95yMqdUQ73LqQ-36" source="xchZKOA8fYitA80GFGcP-117" target="xchZKOA8fYitA80GFGcP-122">
          <mxGeometry relative="1" as="geometry" />
        </mxCell>
        <mxCell id="xchZKOA8fYitA80GFGcP-117" value="ตรวจสอบว่ามีสินค้า&lt;div&gt;หรือไม่&lt;/div&gt;" style="rhombus;whiteSpace=wrap;html=1;" vertex="1" parent="mvioNwK95yMqdUQ73LqQ-36">
          <mxGeometry x="362.5" y="936" width="125" height="110" as="geometry" />
        </mxCell>
        <mxCell id="xchZKOA8fYitA80GFGcP-120" value="yes" style="text;html=1;align=center;verticalAlign=middle;whiteSpace=wrap;rounded=0;" vertex="1" parent="mvioNwK95yMqdUQ73LqQ-36">
          <mxGeometry x="427.5" y="1046" width="60" height="30" as="geometry" />
        </mxCell>
        <mxCell id="xchZKOA8fYitA80GFGcP-124" style="edgeStyle=orthogonalEdgeStyle;rounded=0;orthogonalLoop=1;jettySize=auto;html=1;entryX=1;entryY=0.5;entryDx=0;entryDy=0;" edge="1" parent="mvioNwK95yMqdUQ73LqQ-36" source="xchZKOA8fYitA80GFGcP-122" target="xchZKOA8fYitA80GFGcP-35">
          <mxGeometry relative="1" as="geometry">
            <Array as="points">
              <mxPoint x="670" y="260" />
            </Array>
          </mxGeometry>
        </mxCell>
        <mxCell id="xchZKOA8fYitA80GFGcP-122" value="" style="ellipse;whiteSpace=wrap;html=1;aspect=fixed;" vertex="1" parent="mvioNwK95yMqdUQ73LqQ-36">
          <mxGeometry x="650" y="590" width="40" height="40" as="geometry" />
        </mxCell>
        <mxCell id="xchZKOA8fYitA80GFGcP-126" value="no" style="text;html=1;align=center;verticalAlign=middle;whiteSpace=wrap;rounded=0;" vertex="1" parent="mvioNwK95yMqdUQ73LqQ-36">
          <mxGeometry x="540" y="956" width="60" height="30" as="geometry" />
        </mxCell>
        <mxCell id="mvioNwK95yMqdUQ73LqQ-70" value="&lt;font data-font-src=&quot;https://fonts.googleapis.com/css?family=Sarabun&quot; face=&quot;Sarabun&quot;&gt;โจทย์ปัญหา&lt;/font&gt;" style="swimlane;whiteSpace=wrap;html=1;" parent="WIyWlLk6GJQsqaUBKTNV-1" vertex="1">
          <mxGeometry x="-720" y="320" width="640" height="240" as="geometry" />
        </mxCell>
        <mxCell id="mvioNwK95yMqdUQ73LqQ-71" value="&lt;font data-font-src=&quot;https://fonts.googleapis.com/css?family=Sarabun&quot; face=&quot;Sarabun&quot; style=&quot;font-size: 14px;&quot;&gt;จงเขียน Flowchart เพื่อแสดงขั้นตอนการทำงาน ของเครื่องขายน้ำอัตโนมัติที่ชื่อว่า &quot;ตะพาบลอย&quot;&lt;br&gt;โดยจะต้องมีสินค้าดังนี้&lt;br&gt;&lt;u&gt;ประเภทน้ำ&lt;span style=&quot;white-space: pre;&quot;&gt;&#x9;&lt;/span&gt;&lt;span style=&quot;white-space: pre;&quot;&gt;&#x9;&lt;/span&gt;&lt;span style=&quot;white-space: pre;&quot;&gt;&#x9;&lt;/span&gt;&lt;span style=&quot;white-space: pre;&quot;&gt;&#x9;&lt;/span&gt;&lt;span style=&quot;white-space: pre;&quot;&gt;&#x9;&lt;/span&gt;&lt;span style=&quot;white-space: pre;&quot;&gt;&#x9;&lt;span style=&quot;white-space: pre;&quot;&gt;&#x9;&lt;/span&gt;ข&lt;/span&gt;นม&lt;/u&gt;&lt;br&gt;&lt;span style=&quot;white-space: pre;&quot;&gt;&#x9;&lt;/span&gt;- โค้ก กระป๋องละ 10 บาท&lt;span style=&quot;white-space: pre;&quot;&gt;&#x9;&lt;/span&gt;&lt;span style=&quot;white-space: pre;&quot;&gt;&#x9;&lt;/span&gt;&lt;span style=&quot;white-space: pre;&quot;&gt;&#x9;&lt;/span&gt;&lt;span style=&quot;white-space: pre;&quot;&gt;&#x9;&lt;/span&gt;- เมล็ดทานตะวัน 13 บาท&lt;br&gt;&lt;span style=&quot;white-space: pre;&quot;&gt;&#x9;&lt;/span&gt;- น้ำเขียว กระป๋องละ 12 บาท&lt;span style=&quot;white-space: pre;&quot;&gt;&#x9;&lt;/span&gt;&lt;span style=&quot;white-space: pre;&quot;&gt;&#x9;&lt;/span&gt;&lt;span style=&quot;white-space: pre;&quot;&gt;&#x9;&lt;/span&gt;- ถั่วแปบ 20 บาท&lt;br&gt;&lt;span style=&quot;white-space: pre;&quot;&gt;&#x9;&lt;/span&gt;- อเมริกาโน่ 30 บาท&lt;span style=&quot;white-space: pre;&quot;&gt;&#x9;&lt;/span&gt;&lt;span style=&quot;white-space: pre;&quot;&gt;&#x9;&lt;/span&gt;&lt;span style=&quot;white-space: pre;&quot;&gt;&#x9;&lt;/span&gt;&lt;span style=&quot;white-space: pre;&quot;&gt;&#x9;&lt;/span&gt;&lt;span style=&quot;white-space: pre;&quot;&gt;&#x9;&lt;/span&gt;- จิ้นส้มหมก 15 บาท&lt;br&gt;&lt;span style=&quot;white-space: pre;&quot;&gt;&#x9;&lt;/span&gt;- ลาเต้ หวานเจี๊ยบ 35 บาท&lt;span style=&quot;white-space: pre;&quot;&gt;&#x9;&lt;/span&gt;&lt;br&gt;&lt;br&gt;&lt;u&gt;สิ่งที่ระบบควรจะทำได้&lt;/u&gt;&lt;br&gt;&lt;span style=&quot;white-space: pre;&quot;&gt;&#x9;&lt;/span&gt;- ลูกค้าเลือกสินค้า, ระบบจะต้องรวมยอดขาย และรวมรายการสินค้าทั้งหมดที่ลูกค้าเลือก&lt;br&gt;&lt;span style=&quot;white-space: pre;&quot;&gt;&#x9;&lt;/span&gt;- สรุปยอดว่าเหลือเงินในตู้อีกเท่าไหร่ เหลือเหรียญอะไรบ้าง? ธนบัตรอะไรบ้าง? อย่างละเท่าไหร่?&lt;br&gt;&lt;br&gt;&lt;br&gt;&lt;/font&gt;" style="text;html=1;align=left;verticalAlign=middle;resizable=0;points=[];autosize=1;strokeColor=none;fillColor=none;fontSize=14;" parent="mvioNwK95yMqdUQ73LqQ-70" vertex="1">
          <mxGeometry x="25" y="30" width="580" height="240" as="geometry" />
        </mxCell>
        <mxCell id="xchZKOA8fYitA80GFGcP-75" value="แก้ไขโจทย์ปัญหา" style="swimlane;fontFamily=Sarabun;fontSource=https%3A%2F%2Ffonts.googleapis.com%2Fcss%3Ffamily%3DSarabun;" vertex="1" parent="WIyWlLk6GJQsqaUBKTNV-1">
          <mxGeometry x="870" y="15" width="726.5" height="1140" as="geometry" />
        </mxCell>
        <mxCell id="xchZKOA8fYitA80GFGcP-102" style="edgeStyle=orthogonalEdgeStyle;rounded=0;orthogonalLoop=1;jettySize=auto;html=1;entryX=0;entryY=0.5;entryDx=0;entryDy=0;" edge="1" parent="xchZKOA8fYitA80GFGcP-75" target="xchZKOA8fYitA80GFGcP-111">
          <mxGeometry relative="1" as="geometry">
            <mxPoint x="230" y="160" as="targetPoint" />
            <Array as="points">
              <mxPoint x="67" y="845" />
              <mxPoint x="67" y="160" />
            </Array>
            <mxPoint x="362.5" y="845" as="sourcePoint" />
          </mxGeometry>
        </mxCell>
        <mxCell id="xchZKOA8fYitA80GFGcP-129" style="edgeStyle=orthogonalEdgeStyle;rounded=0;orthogonalLoop=1;jettySize=auto;html=1;entryX=0.5;entryY=0;entryDx=0;entryDy=0;" edge="1" parent="xchZKOA8fYitA80GFGcP-75" source="xchZKOA8fYitA80GFGcP-115" target="xchZKOA8fYitA80GFGcP-52">
          <mxGeometry relative="1" as="geometry" />
        </mxCell>
        <mxCell id="xchZKOA8fYitA80GFGcP-115" value="" style="verticalLabelPosition=bottom;verticalAlign=top;html=1;shape=offPageConnector;rounded=0;size=0.5;" vertex="1" parent="xchZKOA8fYitA80GFGcP-75">
          <mxGeometry x="343.25" y="70" width="40" height="40" as="geometry" />
        </mxCell>
        <mxCell id="xchZKOA8fYitA80GFGcP-116" value="ก" style="text;html=1;align=center;verticalAlign=middle;whiteSpace=wrap;rounded=0;" vertex="1" parent="xchZKOA8fYitA80GFGcP-75">
          <mxGeometry x="333.25" y="70" width="60" height="30" as="geometry" />
        </mxCell>
        <mxCell id="xchZKOA8fYitA80GFGcP-57" value="" style="edgeStyle=orthogonalEdgeStyle;rounded=0;orthogonalLoop=1;jettySize=auto;html=1;" edge="1" parent="xchZKOA8fYitA80GFGcP-75" source="xchZKOA8fYitA80GFGcP-52" target="xchZKOA8fYitA80GFGcP-56">
          <mxGeometry relative="1" as="geometry" />
        </mxCell>
        <mxCell id="xchZKOA8fYitA80GFGcP-52" value="รวมรายการทั้งหมดที่ลูกค้าเลือก" style="whiteSpace=wrap;html=1;" vertex="1" parent="xchZKOA8fYitA80GFGcP-75">
          <mxGeometry x="280.75" y="150" width="165" height="60" as="geometry" />
        </mxCell>
        <mxCell id="xchZKOA8fYitA80GFGcP-62" style="edgeStyle=orthogonalEdgeStyle;rounded=0;orthogonalLoop=1;jettySize=auto;html=1;" edge="1" parent="xchZKOA8fYitA80GFGcP-75" source="xchZKOA8fYitA80GFGcP-56" target="xchZKOA8fYitA80GFGcP-61">
          <mxGeometry relative="1" as="geometry" />
        </mxCell>
        <mxCell id="xchZKOA8fYitA80GFGcP-56" value="รวมราคาทั้งหมดของสินค้าที่เลือก&amp;nbsp;" style="whiteSpace=wrap;html=1;" vertex="1" parent="xchZKOA8fYitA80GFGcP-75">
          <mxGeometry x="275.75" y="254" width="175" height="60" as="geometry" />
        </mxCell>
        <mxCell id="xchZKOA8fYitA80GFGcP-64" value="" style="edgeStyle=orthogonalEdgeStyle;rounded=0;orthogonalLoop=1;jettySize=auto;html=1;" edge="1" parent="xchZKOA8fYitA80GFGcP-75" source="xchZKOA8fYitA80GFGcP-61" target="xchZKOA8fYitA80GFGcP-63">
          <mxGeometry relative="1" as="geometry" />
        </mxCell>
        <mxCell id="xchZKOA8fYitA80GFGcP-61" value="แสดงรายการทั้งหมดรวมกับ&lt;div&gt;ราคาสินค้าทั้งหมด&lt;/div&gt;" style="shape=parallelogram;perimeter=parallelogramPerimeter;whiteSpace=wrap;html=1;fixedSize=1;" vertex="1" parent="xchZKOA8fYitA80GFGcP-75">
          <mxGeometry x="264.5" y="370" width="197.5" height="60" as="geometry" />
        </mxCell>
        <mxCell id="xchZKOA8fYitA80GFGcP-66" value="" style="edgeStyle=orthogonalEdgeStyle;rounded=0;orthogonalLoop=1;jettySize=auto;html=1;" edge="1" parent="xchZKOA8fYitA80GFGcP-75" source="xchZKOA8fYitA80GFGcP-63" target="xchZKOA8fYitA80GFGcP-65">
          <mxGeometry relative="1" as="geometry" />
        </mxCell>
        <mxCell id="xchZKOA8fYitA80GFGcP-63" value="เลือกวิธีการเงิน" style="whiteSpace=wrap;html=1;" vertex="1" parent="xchZKOA8fYitA80GFGcP-75">
          <mxGeometry x="285.75" y="490" width="155" height="60" as="geometry" />
        </mxCell>
        <mxCell id="xchZKOA8fYitA80GFGcP-68" value="" style="edgeStyle=orthogonalEdgeStyle;rounded=0;orthogonalLoop=1;jettySize=auto;html=1;" edge="1" parent="xchZKOA8fYitA80GFGcP-75" source="xchZKOA8fYitA80GFGcP-65" target="xchZKOA8fYitA80GFGcP-67">
          <mxGeometry relative="1" as="geometry" />
        </mxCell>
        <mxCell id="xchZKOA8fYitA80GFGcP-65" value="&lt;div&gt;จ่ายเงินแบบสแกน&lt;div&gt;หรือไม่&lt;/div&gt;&lt;/div&gt;" style="rhombus;whiteSpace=wrap;html=1;" vertex="1" parent="xchZKOA8fYitA80GFGcP-75">
          <mxGeometry x="305.75" y="590" width="115" height="110" as="geometry" />
        </mxCell>
        <mxCell id="xchZKOA8fYitA80GFGcP-133" style="edgeStyle=orthogonalEdgeStyle;rounded=0;orthogonalLoop=1;jettySize=auto;html=1;entryX=0.5;entryY=0;entryDx=0;entryDy=0;" edge="1" parent="xchZKOA8fYitA80GFGcP-75" source="xchZKOA8fYitA80GFGcP-67" target="xchZKOA8fYitA80GFGcP-142">
          <mxGeometry relative="1" as="geometry">
            <mxPoint x="363.25" y="885" as="targetPoint" />
          </mxGeometry>
        </mxCell>
        <mxCell id="xchZKOA8fYitA80GFGcP-149" style="edgeStyle=orthogonalEdgeStyle;rounded=0;orthogonalLoop=1;jettySize=auto;html=1;entryX=0;entryY=0.5;entryDx=0;entryDy=0;" edge="1" parent="xchZKOA8fYitA80GFGcP-75" source="xchZKOA8fYitA80GFGcP-67" target="xchZKOA8fYitA80GFGcP-147">
          <mxGeometry relative="1" as="geometry" />
        </mxCell>
        <mxCell id="xchZKOA8fYitA80GFGcP-67" value="จ่ายเงินสดหรือไม่" style="rhombus;whiteSpace=wrap;html=1;strokeColor=default;align=center;verticalAlign=middle;fontFamily=Helvetica;fontSize=12;fontColor=default;fillColor=default;" vertex="1" parent="xchZKOA8fYitA80GFGcP-75">
          <mxGeometry x="305.75" y="740" width="115" height="95" as="geometry" />
        </mxCell>
        <mxCell id="xchZKOA8fYitA80GFGcP-130" value="no" style="text;html=1;align=center;verticalAlign=middle;whiteSpace=wrap;rounded=0;" vertex="1" parent="xchZKOA8fYitA80GFGcP-75">
          <mxGeometry x="305.75" y="705" width="60" height="30" as="geometry" />
        </mxCell>
        <mxCell id="xchZKOA8fYitA80GFGcP-134" value="yes" style="text;html=1;align=center;verticalAlign=middle;whiteSpace=wrap;rounded=0;" vertex="1" parent="xchZKOA8fYitA80GFGcP-75">
          <mxGeometry x="300" y="835" width="60" height="30" as="geometry" />
        </mxCell>
        <mxCell id="xchZKOA8fYitA80GFGcP-136" value="yes" style="text;html=1;align=center;verticalAlign=middle;whiteSpace=wrap;rounded=0;" vertex="1" parent="xchZKOA8fYitA80GFGcP-75">
          <mxGeometry x="253" y="615" width="60" height="30" as="geometry" />
        </mxCell>
        <mxCell id="xchZKOA8fYitA80GFGcP-138" value="no" style="text;html=1;align=center;verticalAlign=middle;whiteSpace=wrap;rounded=0;" vertex="1" parent="xchZKOA8fYitA80GFGcP-75">
          <mxGeometry x="420.75" y="755" width="60" height="30" as="geometry" />
        </mxCell>
        <mxCell id="xchZKOA8fYitA80GFGcP-146" style="edgeStyle=orthogonalEdgeStyle;rounded=0;orthogonalLoop=1;jettySize=auto;html=1;" edge="1" parent="xchZKOA8fYitA80GFGcP-75" source="xchZKOA8fYitA80GFGcP-142" target="xchZKOA8fYitA80GFGcP-145">
          <mxGeometry relative="1" as="geometry" />
        </mxCell>
        <mxCell id="xchZKOA8fYitA80GFGcP-169" style="edgeStyle=orthogonalEdgeStyle;rounded=0;orthogonalLoop=1;jettySize=auto;html=1;entryX=0.5;entryY=0;entryDx=0;entryDy=0;" edge="1" parent="xchZKOA8fYitA80GFGcP-75" source="xchZKOA8fYitA80GFGcP-142" target="xchZKOA8fYitA80GFGcP-159">
          <mxGeometry relative="1" as="geometry" />
        </mxCell>
        <mxCell id="xchZKOA8fYitA80GFGcP-142" value="จำนวนเงินที่ได้รับ &amp;gt;= ราคาสินค้า" style="rhombus;whiteSpace=wrap;html=1;" vertex="1" parent="xchZKOA8fYitA80GFGcP-75">
          <mxGeometry x="314.87" y="865" width="96.75" height="95" as="geometry" />
        </mxCell>
        <mxCell id="xchZKOA8fYitA80GFGcP-150" style="edgeStyle=orthogonalEdgeStyle;rounded=0;orthogonalLoop=1;jettySize=auto;html=1;entryX=0.5;entryY=1;entryDx=0;entryDy=0;" edge="1" parent="xchZKOA8fYitA80GFGcP-75" source="xchZKOA8fYitA80GFGcP-145" target="xchZKOA8fYitA80GFGcP-147">
          <mxGeometry relative="1" as="geometry" />
        </mxCell>
        <mxCell id="xchZKOA8fYitA80GFGcP-145" value="แสดงยอดเงินคงเหลือที่&lt;div&gt;ลูกค้าต้องจ่ายเพิ่ม&lt;/div&gt;" style="shape=parallelogram;perimeter=parallelogramPerimeter;whiteSpace=wrap;html=1;fixedSize=1;" vertex="1" parent="xchZKOA8fYitA80GFGcP-75">
          <mxGeometry x="530" y="878.75" width="180" height="67.5" as="geometry" />
        </mxCell>
        <mxCell id="xchZKOA8fYitA80GFGcP-151" style="edgeStyle=orthogonalEdgeStyle;rounded=0;orthogonalLoop=1;jettySize=auto;html=1;entryX=1;entryY=0.5;entryDx=0;entryDy=0;" edge="1" parent="xchZKOA8fYitA80GFGcP-75" source="xchZKOA8fYitA80GFGcP-147" target="xchZKOA8fYitA80GFGcP-63">
          <mxGeometry relative="1" as="geometry">
            <Array as="points">
              <mxPoint x="620" y="520" />
            </Array>
          </mxGeometry>
        </mxCell>
        <mxCell id="xchZKOA8fYitA80GFGcP-147" value="" style="ellipse;whiteSpace=wrap;html=1;aspect=fixed;" vertex="1" parent="xchZKOA8fYitA80GFGcP-75">
          <mxGeometry x="600" y="767.5" width="40" height="40" as="geometry" />
        </mxCell>
        <mxCell id="xchZKOA8fYitA80GFGcP-152" value="no" style="text;html=1;align=center;verticalAlign=middle;whiteSpace=wrap;rounded=0;" vertex="1" parent="xchZKOA8fYitA80GFGcP-75">
          <mxGeometry x="430.75" y="878.75" width="60" height="30" as="geometry" />
        </mxCell>
        <mxCell id="xchZKOA8fYitA80GFGcP-153" value="yes" style="text;html=1;align=center;verticalAlign=middle;whiteSpace=wrap;rounded=0;" vertex="1" parent="xchZKOA8fYitA80GFGcP-75">
          <mxGeometry x="305.75" y="960" width="60" height="30" as="geometry" />
        </mxCell>
        <mxCell id="xchZKOA8fYitA80GFGcP-154" value="" style="verticalLabelPosition=bottom;verticalAlign=top;html=1;shape=offPageConnector;rounded=0;size=0.5;" vertex="1" parent="xchZKOA8fYitA80GFGcP-75">
          <mxGeometry x="343.25" y="1095" width="40" height="40" as="geometry" />
        </mxCell>
        <mxCell id="xchZKOA8fYitA80GFGcP-155" value="ข" style="text;html=1;align=center;verticalAlign=middle;whiteSpace=wrap;rounded=0;" vertex="1" parent="xchZKOA8fYitA80GFGcP-75">
          <mxGeometry x="333.25" y="1095" width="60" height="30" as="geometry" />
        </mxCell>
        <mxCell id="xchZKOA8fYitA80GFGcP-170" style="edgeStyle=orthogonalEdgeStyle;rounded=0;orthogonalLoop=1;jettySize=auto;html=1;entryX=0.5;entryY=0;entryDx=0;entryDy=0;" edge="1" parent="xchZKOA8fYitA80GFGcP-75" source="xchZKOA8fYitA80GFGcP-159" target="xchZKOA8fYitA80GFGcP-155">
          <mxGeometry relative="1" as="geometry" />
        </mxCell>
        <mxCell id="xchZKOA8fYitA80GFGcP-159" value="คำนวนเงินทอน" style="whiteSpace=wrap;html=1;" vertex="1" parent="xchZKOA8fYitA80GFGcP-75">
          <mxGeometry x="288.25" y="995" width="150" height="60" as="geometry" />
        </mxCell>
        <mxCell id="xchZKOA8fYitA80GFGcP-113" value="แก้ไขโจทย์ปัญหา" style="swimlane;fontFamily=Sarabun;fontSource=https%3A%2F%2Ffonts.googleapis.com%2Fcss%3Ffamily%3DSarabun;" vertex="1" parent="WIyWlLk6GJQsqaUBKTNV-1">
          <mxGeometry x="1680" y="10" width="726.5" height="1150" as="geometry" />
        </mxCell>
        <mxCell id="xchZKOA8fYitA80GFGcP-2" value="&lt;span style=&quot;font-size: 15px;&quot;&gt;สิ้นสุด&lt;/span&gt;" style="strokeWidth=1;html=1;shape=mxgraph.flowchart.terminator;whiteSpace=wrap;" vertex="1" parent="xchZKOA8fYitA80GFGcP-113">
          <mxGeometry x="298.26" y="1070" width="130" height="60" as="geometry" />
        </mxCell>
        <mxCell id="xchZKOA8fYitA80GFGcP-157" value="" style="verticalLabelPosition=bottom;verticalAlign=top;html=1;shape=offPageConnector;rounded=0;size=0.5;" vertex="1" parent="xchZKOA8fYitA80GFGcP-113">
          <mxGeometry x="343.25" y="50" width="40" height="40" as="geometry" />
        </mxCell>
        <mxCell id="xchZKOA8fYitA80GFGcP-158" value="ข" style="text;html=1;align=center;verticalAlign=middle;whiteSpace=wrap;rounded=0;" vertex="1" parent="xchZKOA8fYitA80GFGcP-113">
          <mxGeometry x="333.25" y="50" width="60" height="30" as="geometry" />
        </mxCell>
        <mxCell id="xchZKOA8fYitA80GFGcP-166" value="" style="edgeStyle=orthogonalEdgeStyle;rounded=0;orthogonalLoop=1;jettySize=auto;html=1;" edge="1" parent="xchZKOA8fYitA80GFGcP-113" source="xchZKOA8fYitA80GFGcP-161" target="xchZKOA8fYitA80GFGcP-165">
          <mxGeometry relative="1" as="geometry" />
        </mxCell>
        <mxCell id="xchZKOA8fYitA80GFGcP-161" value="จำนวนเงินทอน = ราคารสินค้า - จำนวนเงินที่ได้รับ&amp;nbsp;&amp;nbsp;" style="whiteSpace=wrap;html=1;" vertex="1" parent="xchZKOA8fYitA80GFGcP-113">
          <mxGeometry x="244.13" y="230" width="238.25" height="60" as="geometry" />
        </mxCell>
        <mxCell id="xchZKOA8fYitA80GFGcP-173" value="" style="edgeStyle=orthogonalEdgeStyle;rounded=0;orthogonalLoop=1;jettySize=auto;html=1;" edge="1" parent="xchZKOA8fYitA80GFGcP-113" source="xchZKOA8fYitA80GFGcP-164" target="xchZKOA8fYitA80GFGcP-172">
          <mxGeometry relative="1" as="geometry" />
        </mxCell>
        <mxCell id="xchZKOA8fYitA80GFGcP-180" style="edgeStyle=orthogonalEdgeStyle;rounded=0;orthogonalLoop=1;jettySize=auto;html=1;entryX=0;entryY=0.5;entryDx=0;entryDy=0;" edge="1" parent="xchZKOA8fYitA80GFGcP-113" source="xchZKOA8fYitA80GFGcP-164" target="xchZKOA8fYitA80GFGcP-181">
          <mxGeometry relative="1" as="geometry">
            <mxPoint x="549.9999999999995" y="505" as="targetPoint" />
          </mxGeometry>
        </mxCell>
        <mxCell id="xchZKOA8fYitA80GFGcP-164" value="เงินในตู้ &amp;gt;= เงินทอน&lt;div&gt;หรือไม่&lt;/div&gt;" style="rhombus;whiteSpace=wrap;html=1;" vertex="1" parent="xchZKOA8fYitA80GFGcP-113">
          <mxGeometry x="286.63" y="450" width="153.26" height="110" as="geometry" />
        </mxCell>
        <mxCell id="xchZKOA8fYitA80GFGcP-167" style="edgeStyle=orthogonalEdgeStyle;rounded=0;orthogonalLoop=1;jettySize=auto;html=1;" edge="1" parent="xchZKOA8fYitA80GFGcP-113" source="xchZKOA8fYitA80GFGcP-165" target="xchZKOA8fYitA80GFGcP-164">
          <mxGeometry relative="1" as="geometry" />
        </mxCell>
        <mxCell id="xchZKOA8fYitA80GFGcP-165" value="คำนวน จำนวนเหรียญ และ จำนวนธนบัตรภายในตู้" style="whiteSpace=wrap;html=1;" vertex="1" parent="xchZKOA8fYitA80GFGcP-113">
          <mxGeometry x="253.25" y="340" width="220.01" height="60" as="geometry" />
        </mxCell>
        <mxCell id="xchZKOA8fYitA80GFGcP-177" style="edgeStyle=orthogonalEdgeStyle;rounded=0;orthogonalLoop=1;jettySize=auto;html=1;" edge="1" parent="xchZKOA8fYitA80GFGcP-113" source="xchZKOA8fYitA80GFGcP-139" target="xchZKOA8fYitA80GFGcP-171">
          <mxGeometry relative="1" as="geometry" />
        </mxCell>
        <mxCell id="xchZKOA8fYitA80GFGcP-139" value="ปล่อยสินค้า" style="whiteSpace=wrap;html=1;" vertex="1" parent="xchZKOA8fYitA80GFGcP-113">
          <mxGeometry x="288.25" y="800" width="150" height="60" as="geometry" />
        </mxCell>
        <mxCell id="xchZKOA8fYitA80GFGcP-187" style="edgeStyle=orthogonalEdgeStyle;rounded=0;orthogonalLoop=1;jettySize=auto;html=1;entryX=0.5;entryY=0;entryDx=0;entryDy=0;" edge="1" parent="xchZKOA8fYitA80GFGcP-113" source="xchZKOA8fYitA80GFGcP-171" target="xchZKOA8fYitA80GFGcP-186">
          <mxGeometry relative="1" as="geometry" />
        </mxCell>
        <mxCell id="xchZKOA8fYitA80GFGcP-171" value="ลูกค้าได้รับสินค้า" style="whiteSpace=wrap;html=1;" vertex="1" parent="xchZKOA8fYitA80GFGcP-113">
          <mxGeometry x="288.25" y="910" width="150" height="60" as="geometry" />
        </mxCell>
        <mxCell id="xchZKOA8fYitA80GFGcP-182" style="edgeStyle=orthogonalEdgeStyle;rounded=0;orthogonalLoop=1;jettySize=auto;html=1;" edge="1" parent="xchZKOA8fYitA80GFGcP-113" source="xchZKOA8fYitA80GFGcP-172" target="xchZKOA8fYitA80GFGcP-175">
          <mxGeometry relative="1" as="geometry" />
        </mxCell>
        <mxCell id="xchZKOA8fYitA80GFGcP-172" value="ลดจำนวนเงินในตู้" style="whiteSpace=wrap;html=1;" vertex="1" parent="xchZKOA8fYitA80GFGcP-113">
          <mxGeometry x="303.25" y="600" width="120" height="60" as="geometry" />
        </mxCell>
        <mxCell id="xchZKOA8fYitA80GFGcP-183" style="edgeStyle=orthogonalEdgeStyle;rounded=0;orthogonalLoop=1;jettySize=auto;html=1;entryX=0.5;entryY=0;entryDx=0;entryDy=0;" edge="1" parent="xchZKOA8fYitA80GFGcP-113" source="xchZKOA8fYitA80GFGcP-175" target="xchZKOA8fYitA80GFGcP-139">
          <mxGeometry relative="1" as="geometry" />
        </mxCell>
        <mxCell id="xchZKOA8fYitA80GFGcP-175" value="เงินทอน = 0" style="whiteSpace=wrap;html=1;" vertex="1" parent="xchZKOA8fYitA80GFGcP-113">
          <mxGeometry x="288.2600000000001" y="700" width="150" height="60" as="geometry" />
        </mxCell>
        <mxCell id="xchZKOA8fYitA80GFGcP-178" value="no" style="text;html=1;align=center;verticalAlign=middle;whiteSpace=wrap;rounded=0;" vertex="1" parent="xchZKOA8fYitA80GFGcP-113">
          <mxGeometry x="460" y="480" width="60" height="30" as="geometry" />
        </mxCell>
        <mxCell id="xchZKOA8fYitA80GFGcP-179" value="yes" style="text;html=1;align=center;verticalAlign=middle;whiteSpace=wrap;rounded=0;" vertex="1" parent="xchZKOA8fYitA80GFGcP-113">
          <mxGeometry x="363.25" y="560" width="60" height="30" as="geometry" />
        </mxCell>
        <mxCell id="xchZKOA8fYitA80GFGcP-185" value="" style="edgeStyle=orthogonalEdgeStyle;rounded=0;orthogonalLoop=1;jettySize=auto;html=1;" edge="1" parent="xchZKOA8fYitA80GFGcP-113" source="xchZKOA8fYitA80GFGcP-181" target="xchZKOA8fYitA80GFGcP-184">
          <mxGeometry relative="1" as="geometry" />
        </mxCell>
        <mxCell id="xchZKOA8fYitA80GFGcP-181" value="คืนเงินให้ลูกค้า" style="rounded=0;whiteSpace=wrap;html=1;" vertex="1" parent="xchZKOA8fYitA80GFGcP-113">
          <mxGeometry x="550" y="475" width="120" height="60" as="geometry" />
        </mxCell>
        <mxCell id="xchZKOA8fYitA80GFGcP-188" style="edgeStyle=orthogonalEdgeStyle;rounded=0;orthogonalLoop=1;jettySize=auto;html=1;entryX=1;entryY=0.5;entryDx=0;entryDy=0;" edge="1" parent="xchZKOA8fYitA80GFGcP-113" source="xchZKOA8fYitA80GFGcP-184" target="xchZKOA8fYitA80GFGcP-186">
          <mxGeometry relative="1" as="geometry">
            <Array as="points">
              <mxPoint x="610" y="1020" />
            </Array>
          </mxGeometry>
        </mxCell>
        <mxCell id="xchZKOA8fYitA80GFGcP-184" value="แสดงข้อความไม่มีเงินทอน" style="shape=parallelogram;perimeter=parallelogramPerimeter;whiteSpace=wrap;html=1;fixedSize=1;rounded=0;" vertex="1" parent="xchZKOA8fYitA80GFGcP-113">
          <mxGeometry x="520" y="615" width="180" height="60" as="geometry" />
        </mxCell>
        <mxCell id="xchZKOA8fYitA80GFGcP-189" style="edgeStyle=orthogonalEdgeStyle;rounded=0;orthogonalLoop=1;jettySize=auto;html=1;" edge="1" parent="xchZKOA8fYitA80GFGcP-113" source="xchZKOA8fYitA80GFGcP-186" target="xchZKOA8fYitA80GFGcP-2">
          <mxGeometry relative="1" as="geometry" />
        </mxCell>
        <mxCell id="xchZKOA8fYitA80GFGcP-186" value="" style="ellipse;whiteSpace=wrap;html=1;aspect=fixed;" vertex="1" parent="xchZKOA8fYitA80GFGcP-113">
          <mxGeometry x="343.25" y="1000" width="40" height="40" as="geometry" />
        </mxCell>
      </root>
    </mxGraphModel>
  </diagram>
</mxfile>
